<mxfile host="Electron" modified="2023-05-18T10:46:24.046Z" agent="Mozilla/5.0 (Windows NT 10.0; Win64; x64) AppleWebKit/537.36 (KHTML, like Gecko) draw.io/21.2.8 Chrome/112.0.5615.165 Electron/24.2.0 Safari/537.36" etag="d9IdC2H1HjZ9-wpnyLH9" version="21.2.8" type="device">
  <diagram name="Страница 1" id="8irfIcgsbVIlPLBxms1G">
    <mxGraphModel dx="901" dy="535" grid="1" gridSize="10" guides="1" tooltips="1" connect="1" arrows="1" fold="1" page="1" pageScale="1" pageWidth="827" pageHeight="1169" math="0" shadow="0">
      <root>
        <mxCell id="0" />
        <mxCell id="1" parent="0" />
        <mxCell id="WQcwFdW8i2N5XgTvaxG--1" value="&lt;font size=&quot;3&quot;&gt;Экран&lt;/font&gt;" style="rounded=0;whiteSpace=wrap;html=1;" vertex="1" parent="1">
          <mxGeometry x="20" y="190" width="140" height="120" as="geometry" />
        </mxCell>
        <mxCell id="WQcwFdW8i2N5XgTvaxG--2" value="&lt;font size=&quot;3&quot;&gt;Порт1&lt;/font&gt;" style="rounded=0;whiteSpace=wrap;html=1;" vertex="1" parent="1">
          <mxGeometry x="200" y="207.5" width="130" height="72.5" as="geometry" />
        </mxCell>
        <mxCell id="WQcwFdW8i2N5XgTvaxG--3" value="&lt;font size=&quot;3&quot;&gt;Порт&lt;/font&gt;" style="rounded=0;whiteSpace=wrap;html=1;" vertex="1" parent="1">
          <mxGeometry x="480" y="207.5" width="130" height="72.5" as="geometry" />
        </mxCell>
        <mxCell id="WQcwFdW8i2N5XgTvaxG--4" value="&lt;font size=&quot;3&quot;&gt;ПК&lt;/font&gt;" style="rounded=0;whiteSpace=wrap;html=1;" vertex="1" parent="1">
          <mxGeometry x="660" y="185" width="140" height="120" as="geometry" />
        </mxCell>
        <mxCell id="WQcwFdW8i2N5XgTvaxG--5" value="&lt;font size=&quot;3&quot;&gt;Почтальон&lt;/font&gt;" style="rounded=0;whiteSpace=wrap;html=1;" vertex="1" parent="1">
          <mxGeometry x="350" y="187.5" width="110" height="125" as="geometry" />
        </mxCell>
        <mxCell id="WQcwFdW8i2N5XgTvaxG--11" style="edgeStyle=orthogonalEdgeStyle;rounded=0;orthogonalLoop=1;jettySize=auto;html=1;entryX=1.003;entryY=0.811;entryDx=0;entryDy=0;entryPerimeter=0;shadow=0;strokeColor=default;" edge="1" parent="1" source="WQcwFdW8i2N5XgTvaxG--6" target="WQcwFdW8i2N5XgTvaxG--1">
          <mxGeometry relative="1" as="geometry">
            <Array as="points">
              <mxPoint x="240" y="442" />
              <mxPoint x="240" y="287" />
            </Array>
          </mxGeometry>
        </mxCell>
        <mxCell id="WQcwFdW8i2N5XgTvaxG--6" value="&lt;font size=&quot;3&quot;&gt;Состояние&lt;/font&gt;" style="rounded=0;whiteSpace=wrap;html=1;" vertex="1" parent="1">
          <mxGeometry x="305" y="380" width="200" height="125" as="geometry" />
        </mxCell>
      </root>
    </mxGraphModel>
  </diagram>
</mxfile>
